<?xml version="1.0" encoding="utf-8" standalone="no"?>
<!DOCTYPE svg PUBLIC "-//W3C//DTD SVG 1.1//EN"
  "http://www.w3.org/Graphics/SVG/1.1/DTD/svg11.dtd">
<svg xmlns:xlink="http://www.w3.org/1999/xlink" width="720pt" height="360pt" viewBox="0 0 720 360" xmlns="http://www.w3.org/2000/svg" version="1.1">
 <metadata>
  <rdf:RDF xmlns:dc="http://purl.org/dc/elements/1.1/" xmlns:cc="http://creativecommons.org/ns#" xmlns:rdf="http://www.w3.org/1999/02/22-rdf-syntax-ns#">
   <cc:Work>
    <dc:type rdf:resource="http://purl.org/dc/dcmitype/StillImage"/>
    <dc:date>2023-03-01T15:22:40.233603</dc:date>
    <dc:format>image/svg+xml</dc:format>
    <dc:creator>
     <cc:Agent>
      <dc:title>Matplotlib v3.5.1, https://matplotlib.org/</dc:title>
     </cc:Agent>
    </dc:creator>
   </cc:Work>
  </rdf:RDF>
 </metadata>
 <defs>
  <style type="text/css">*{stroke-linejoin: round; stroke-linecap: butt}</style>
 </defs>
 <g id="figure_1">
  <g id="patch_1">
   <path d="M 0 360 
L 720 360 
L 720 0 
L 0 0 
z
" style="fill: #ffffff"/>
  </g>
  <g id="axes_1">
   <g id="patch_2">
    <path d="M 56 318.04 
L 709.2 318.04 
L 709.2 10.8 
L 56 10.8 
z
" style="fill: #ffffff"/>
   </g>
   <g id="matplotlib.axis_1">
    <g id="xtick_1">
     <g id="line2d_1">
      <path d="M 85.690909 318.04 
L 85.690909 10.8 
" clip-path="url(#pc61b159155)" style="fill: none; stroke: #b0b0b0; stroke-width: 0.8; stroke-linecap: square"/>
     </g>
     <g id="line2d_2">
      <defs>
       <path id="m90e3cfc867" d="M 0 0 
L 0 3.5 
" style="stroke: #000000; stroke-width: 0.8"/>
      </defs>
      <g>
       <use xlink:href="#m90e3cfc867" x="85.690909" y="318.04" style="stroke: #000000; stroke-width: 0.8"/>
      </g>
     </g>
     <g id="text_1">
      <!-- 0 -->
      <g transform="translate(82.509659 332.638438)scale(0.1 -0.1)">
       <defs>
        <path id="DejaVuSans-30" d="M 2034 4250 
Q 1547 4250 1301 3770 
Q 1056 3291 1056 2328 
Q 1056 1369 1301 889 
Q 1547 409 2034 409 
Q 2525 409 2770 889 
Q 3016 1369 3016 2328 
Q 3016 3291 2770 3770 
Q 2525 4250 2034 4250 
z
M 2034 4750 
Q 2819 4750 3233 4129 
Q 3647 3509 3647 2328 
Q 3647 1150 3233 529 
Q 2819 -91 2034 -91 
Q 1250 -91 836 529 
Q 422 1150 422 2328 
Q 422 3509 836 4129 
Q 1250 4750 2034 4750 
z
" transform="scale(0.015625)"/>
       </defs>
       <use xlink:href="#DejaVuSans-30"/>
      </g>
     </g>
    </g>
    <g id="xtick_2">
     <g id="line2d_3">
      <path d="M 190.698545 318.04 
L 190.698545 10.8 
" clip-path="url(#pc61b159155)" style="fill: none; stroke: #b0b0b0; stroke-width: 0.8; stroke-linecap: square"/>
     </g>
     <g id="line2d_4">
      <g>
       <use xlink:href="#m90e3cfc867" x="190.698545" y="318.04" style="stroke: #000000; stroke-width: 0.8"/>
      </g>
     </g>
     <g id="text_2">
      <!-- 200 -->
      <g transform="translate(181.154795 332.638438)scale(0.1 -0.1)">
       <defs>
        <path id="DejaVuSans-32" d="M 1228 531 
L 3431 531 
L 3431 0 
L 469 0 
L 469 531 
Q 828 903 1448 1529 
Q 2069 2156 2228 2338 
Q 2531 2678 2651 2914 
Q 2772 3150 2772 3378 
Q 2772 3750 2511 3984 
Q 2250 4219 1831 4219 
Q 1534 4219 1204 4116 
Q 875 4013 500 3803 
L 500 4441 
Q 881 4594 1212 4672 
Q 1544 4750 1819 4750 
Q 2544 4750 2975 4387 
Q 3406 4025 3406 3419 
Q 3406 3131 3298 2873 
Q 3191 2616 2906 2266 
Q 2828 2175 2409 1742 
Q 1991 1309 1228 531 
z
" transform="scale(0.015625)"/>
       </defs>
       <use xlink:href="#DejaVuSans-32"/>
       <use xlink:href="#DejaVuSans-30" x="63.623047"/>
       <use xlink:href="#DejaVuSans-30" x="127.246094"/>
      </g>
     </g>
    </g>
    <g id="xtick_3">
     <g id="line2d_5">
      <path d="M 295.706181 318.04 
L 295.706181 10.8 
" clip-path="url(#pc61b159155)" style="fill: none; stroke: #b0b0b0; stroke-width: 0.8; stroke-linecap: square"/>
     </g>
     <g id="line2d_6">
      <g>
       <use xlink:href="#m90e3cfc867" x="295.706181" y="318.04" style="stroke: #000000; stroke-width: 0.8"/>
      </g>
     </g>
     <g id="text_3">
      <!-- 400 -->
      <g transform="translate(286.162431 332.638438)scale(0.1 -0.1)">
       <defs>
        <path id="DejaVuSans-34" d="M 2419 4116 
L 825 1625 
L 2419 1625 
L 2419 4116 
z
M 2253 4666 
L 3047 4666 
L 3047 1625 
L 3713 1625 
L 3713 1100 
L 3047 1100 
L 3047 0 
L 2419 0 
L 2419 1100 
L 313 1100 
L 313 1709 
L 2253 4666 
z
" transform="scale(0.015625)"/>
       </defs>
       <use xlink:href="#DejaVuSans-34"/>
       <use xlink:href="#DejaVuSans-30" x="63.623047"/>
       <use xlink:href="#DejaVuSans-30" x="127.246094"/>
      </g>
     </g>
    </g>
    <g id="xtick_4">
     <g id="line2d_7">
      <path d="M 400.713817 318.04 
L 400.713817 10.8 
" clip-path="url(#pc61b159155)" style="fill: none; stroke: #b0b0b0; stroke-width: 0.8; stroke-linecap: square"/>
     </g>
     <g id="line2d_8">
      <g>
       <use xlink:href="#m90e3cfc867" x="400.713817" y="318.04" style="stroke: #000000; stroke-width: 0.8"/>
      </g>
     </g>
     <g id="text_4">
      <!-- 600 -->
      <g transform="translate(391.170067 332.638438)scale(0.1 -0.1)">
       <defs>
        <path id="DejaVuSans-36" d="M 2113 2584 
Q 1688 2584 1439 2293 
Q 1191 2003 1191 1497 
Q 1191 994 1439 701 
Q 1688 409 2113 409 
Q 2538 409 2786 701 
Q 3034 994 3034 1497 
Q 3034 2003 2786 2293 
Q 2538 2584 2113 2584 
z
M 3366 4563 
L 3366 3988 
Q 3128 4100 2886 4159 
Q 2644 4219 2406 4219 
Q 1781 4219 1451 3797 
Q 1122 3375 1075 2522 
Q 1259 2794 1537 2939 
Q 1816 3084 2150 3084 
Q 2853 3084 3261 2657 
Q 3669 2231 3669 1497 
Q 3669 778 3244 343 
Q 2819 -91 2113 -91 
Q 1303 -91 875 529 
Q 447 1150 447 2328 
Q 447 3434 972 4092 
Q 1497 4750 2381 4750 
Q 2619 4750 2861 4703 
Q 3103 4656 3366 4563 
z
" transform="scale(0.015625)"/>
       </defs>
       <use xlink:href="#DejaVuSans-36"/>
       <use xlink:href="#DejaVuSans-30" x="63.623047"/>
       <use xlink:href="#DejaVuSans-30" x="127.246094"/>
      </g>
     </g>
    </g>
    <g id="xtick_5">
     <g id="line2d_9">
      <path d="M 505.721453 318.04 
L 505.721453 10.8 
" clip-path="url(#pc61b159155)" style="fill: none; stroke: #b0b0b0; stroke-width: 0.8; stroke-linecap: square"/>
     </g>
     <g id="line2d_10">
      <g>
       <use xlink:href="#m90e3cfc867" x="505.721453" y="318.04" style="stroke: #000000; stroke-width: 0.8"/>
      </g>
     </g>
     <g id="text_5">
      <!-- 800 -->
      <g transform="translate(496.177703 332.638438)scale(0.1 -0.1)">
       <defs>
        <path id="DejaVuSans-38" d="M 2034 2216 
Q 1584 2216 1326 1975 
Q 1069 1734 1069 1313 
Q 1069 891 1326 650 
Q 1584 409 2034 409 
Q 2484 409 2743 651 
Q 3003 894 3003 1313 
Q 3003 1734 2745 1975 
Q 2488 2216 2034 2216 
z
M 1403 2484 
Q 997 2584 770 2862 
Q 544 3141 544 3541 
Q 544 4100 942 4425 
Q 1341 4750 2034 4750 
Q 2731 4750 3128 4425 
Q 3525 4100 3525 3541 
Q 3525 3141 3298 2862 
Q 3072 2584 2669 2484 
Q 3125 2378 3379 2068 
Q 3634 1759 3634 1313 
Q 3634 634 3220 271 
Q 2806 -91 2034 -91 
Q 1263 -91 848 271 
Q 434 634 434 1313 
Q 434 1759 690 2068 
Q 947 2378 1403 2484 
z
M 1172 3481 
Q 1172 3119 1398 2916 
Q 1625 2713 2034 2713 
Q 2441 2713 2670 2916 
Q 2900 3119 2900 3481 
Q 2900 3844 2670 4047 
Q 2441 4250 2034 4250 
Q 1625 4250 1398 4047 
Q 1172 3844 1172 3481 
z
" transform="scale(0.015625)"/>
       </defs>
       <use xlink:href="#DejaVuSans-38"/>
       <use xlink:href="#DejaVuSans-30" x="63.623047"/>
       <use xlink:href="#DejaVuSans-30" x="127.246094"/>
      </g>
     </g>
    </g>
    <g id="xtick_6">
     <g id="line2d_11">
      <path d="M 610.729089 318.04 
L 610.729089 10.8 
" clip-path="url(#pc61b159155)" style="fill: none; stroke: #b0b0b0; stroke-width: 0.8; stroke-linecap: square"/>
     </g>
     <g id="line2d_12">
      <g>
       <use xlink:href="#m90e3cfc867" x="610.729089" y="318.04" style="stroke: #000000; stroke-width: 0.8"/>
      </g>
     </g>
     <g id="text_6">
      <!-- 1000 -->
      <g transform="translate(598.004089 332.638438)scale(0.1 -0.1)">
       <defs>
        <path id="DejaVuSans-31" d="M 794 531 
L 1825 531 
L 1825 4091 
L 703 3866 
L 703 4441 
L 1819 4666 
L 2450 4666 
L 2450 531 
L 3481 531 
L 3481 0 
L 794 0 
L 794 531 
z
" transform="scale(0.015625)"/>
       </defs>
       <use xlink:href="#DejaVuSans-31"/>
       <use xlink:href="#DejaVuSans-30" x="63.623047"/>
       <use xlink:href="#DejaVuSans-30" x="127.246094"/>
       <use xlink:href="#DejaVuSans-30" x="190.869141"/>
      </g>
     </g>
    </g>
    <g id="text_7">
     <!-- Track point -->
     <g transform="translate(355.178906 346.316563)scale(0.1 -0.1)">
      <defs>
       <path id="DejaVuSans-54" d="M -19 4666 
L 3928 4666 
L 3928 4134 
L 2272 4134 
L 2272 0 
L 1638 0 
L 1638 4134 
L -19 4134 
L -19 4666 
z
" transform="scale(0.015625)"/>
       <path id="DejaVuSans-72" d="M 2631 2963 
Q 2534 3019 2420 3045 
Q 2306 3072 2169 3072 
Q 1681 3072 1420 2755 
Q 1159 2438 1159 1844 
L 1159 0 
L 581 0 
L 581 3500 
L 1159 3500 
L 1159 2956 
Q 1341 3275 1631 3429 
Q 1922 3584 2338 3584 
Q 2397 3584 2469 3576 
Q 2541 3569 2628 3553 
L 2631 2963 
z
" transform="scale(0.015625)"/>
       <path id="DejaVuSans-61" d="M 2194 1759 
Q 1497 1759 1228 1600 
Q 959 1441 959 1056 
Q 959 750 1161 570 
Q 1363 391 1709 391 
Q 2188 391 2477 730 
Q 2766 1069 2766 1631 
L 2766 1759 
L 2194 1759 
z
M 3341 1997 
L 3341 0 
L 2766 0 
L 2766 531 
Q 2569 213 2275 61 
Q 1981 -91 1556 -91 
Q 1019 -91 701 211 
Q 384 513 384 1019 
Q 384 1609 779 1909 
Q 1175 2209 1959 2209 
L 2766 2209 
L 2766 2266 
Q 2766 2663 2505 2880 
Q 2244 3097 1772 3097 
Q 1472 3097 1187 3025 
Q 903 2953 641 2809 
L 641 3341 
Q 956 3463 1253 3523 
Q 1550 3584 1831 3584 
Q 2591 3584 2966 3190 
Q 3341 2797 3341 1997 
z
" transform="scale(0.015625)"/>
       <path id="DejaVuSans-63" d="M 3122 3366 
L 3122 2828 
Q 2878 2963 2633 3030 
Q 2388 3097 2138 3097 
Q 1578 3097 1268 2742 
Q 959 2388 959 1747 
Q 959 1106 1268 751 
Q 1578 397 2138 397 
Q 2388 397 2633 464 
Q 2878 531 3122 666 
L 3122 134 
Q 2881 22 2623 -34 
Q 2366 -91 2075 -91 
Q 1284 -91 818 406 
Q 353 903 353 1747 
Q 353 2603 823 3093 
Q 1294 3584 2113 3584 
Q 2378 3584 2631 3529 
Q 2884 3475 3122 3366 
z
" transform="scale(0.015625)"/>
       <path id="DejaVuSans-6b" d="M 581 4863 
L 1159 4863 
L 1159 1991 
L 2875 3500 
L 3609 3500 
L 1753 1863 
L 3688 0 
L 2938 0 
L 1159 1709 
L 1159 0 
L 581 0 
L 581 4863 
z
" transform="scale(0.015625)"/>
       <path id="DejaVuSans-20" transform="scale(0.015625)"/>
       <path id="DejaVuSans-70" d="M 1159 525 
L 1159 -1331 
L 581 -1331 
L 581 3500 
L 1159 3500 
L 1159 2969 
Q 1341 3281 1617 3432 
Q 1894 3584 2278 3584 
Q 2916 3584 3314 3078 
Q 3713 2572 3713 1747 
Q 3713 922 3314 415 
Q 2916 -91 2278 -91 
Q 1894 -91 1617 61 
Q 1341 213 1159 525 
z
M 3116 1747 
Q 3116 2381 2855 2742 
Q 2594 3103 2138 3103 
Q 1681 3103 1420 2742 
Q 1159 2381 1159 1747 
Q 1159 1113 1420 752 
Q 1681 391 2138 391 
Q 2594 391 2855 752 
Q 3116 1113 3116 1747 
z
" transform="scale(0.015625)"/>
       <path id="DejaVuSans-6f" d="M 1959 3097 
Q 1497 3097 1228 2736 
Q 959 2375 959 1747 
Q 959 1119 1226 758 
Q 1494 397 1959 397 
Q 2419 397 2687 759 
Q 2956 1122 2956 1747 
Q 2956 2369 2687 2733 
Q 2419 3097 1959 3097 
z
M 1959 3584 
Q 2709 3584 3137 3096 
Q 3566 2609 3566 1747 
Q 3566 888 3137 398 
Q 2709 -91 1959 -91 
Q 1206 -91 779 398 
Q 353 888 353 1747 
Q 353 2609 779 3096 
Q 1206 3584 1959 3584 
z
" transform="scale(0.015625)"/>
       <path id="DejaVuSans-69" d="M 603 3500 
L 1178 3500 
L 1178 0 
L 603 0 
L 603 3500 
z
M 603 4863 
L 1178 4863 
L 1178 4134 
L 603 4134 
L 603 4863 
z
" transform="scale(0.015625)"/>
       <path id="DejaVuSans-6e" d="M 3513 2113 
L 3513 0 
L 2938 0 
L 2938 2094 
Q 2938 2591 2744 2837 
Q 2550 3084 2163 3084 
Q 1697 3084 1428 2787 
Q 1159 2491 1159 1978 
L 1159 0 
L 581 0 
L 581 3500 
L 1159 3500 
L 1159 2956 
Q 1366 3272 1645 3428 
Q 1925 3584 2291 3584 
Q 2894 3584 3203 3211 
Q 3513 2838 3513 2113 
z
" transform="scale(0.015625)"/>
       <path id="DejaVuSans-74" d="M 1172 4494 
L 1172 3500 
L 2356 3500 
L 2356 3053 
L 1172 3053 
L 1172 1153 
Q 1172 725 1289 603 
Q 1406 481 1766 481 
L 2356 481 
L 2356 0 
L 1766 0 
Q 1100 0 847 248 
Q 594 497 594 1153 
L 594 3053 
L 172 3053 
L 172 3500 
L 594 3500 
L 594 4494 
L 1172 4494 
z
" transform="scale(0.015625)"/>
      </defs>
      <use xlink:href="#DejaVuSans-54"/>
      <use xlink:href="#DejaVuSans-72" x="46.333984"/>
      <use xlink:href="#DejaVuSans-61" x="87.447266"/>
      <use xlink:href="#DejaVuSans-63" x="148.726562"/>
      <use xlink:href="#DejaVuSans-6b" x="203.707031"/>
      <use xlink:href="#DejaVuSans-20" x="261.617188"/>
      <use xlink:href="#DejaVuSans-70" x="293.404297"/>
      <use xlink:href="#DejaVuSans-6f" x="356.880859"/>
      <use xlink:href="#DejaVuSans-69" x="418.0625"/>
      <use xlink:href="#DejaVuSans-6e" x="445.845703"/>
      <use xlink:href="#DejaVuSans-74" x="509.224609"/>
     </g>
    </g>
   </g>
   <g id="matplotlib.axis_2">
    <g id="ytick_1">
     <g id="line2d_13">
      <path d="M 56 306.272771 
L 709.2 306.272771 
" clip-path="url(#pc61b159155)" style="fill: none; stroke: #b0b0b0; stroke-width: 0.8; stroke-linecap: square"/>
     </g>
     <g id="line2d_14">
      <defs>
       <path id="mb24c5804ef" d="M 0 0 
L -3.5 0 
" style="stroke: #000000; stroke-width: 0.8"/>
      </defs>
      <g>
       <use xlink:href="#mb24c5804ef" x="56" y="306.272771" style="stroke: #000000; stroke-width: 0.8"/>
      </g>
     </g>
     <g id="text_8">
      <!-- −0.4 -->
      <g transform="translate(24.717188 310.07199)scale(0.1 -0.1)">
       <defs>
        <path id="DejaVuSans-2212" d="M 678 2272 
L 4684 2272 
L 4684 1741 
L 678 1741 
L 678 2272 
z
" transform="scale(0.015625)"/>
        <path id="DejaVuSans-2e" d="M 684 794 
L 1344 794 
L 1344 0 
L 684 0 
L 684 794 
z
" transform="scale(0.015625)"/>
       </defs>
       <use xlink:href="#DejaVuSans-2212"/>
       <use xlink:href="#DejaVuSans-30" x="83.789062"/>
       <use xlink:href="#DejaVuSans-2e" x="147.412109"/>
       <use xlink:href="#DejaVuSans-34" x="179.199219"/>
      </g>
     </g>
    </g>
    <g id="ytick_2">
     <g id="line2d_15">
      <path d="M 56 246.63189 
L 709.2 246.63189 
" clip-path="url(#pc61b159155)" style="fill: none; stroke: #b0b0b0; stroke-width: 0.8; stroke-linecap: square"/>
     </g>
     <g id="line2d_16">
      <g>
       <use xlink:href="#mb24c5804ef" x="56" y="246.63189" style="stroke: #000000; stroke-width: 0.8"/>
      </g>
     </g>
     <g id="text_9">
      <!-- −0.2 -->
      <g transform="translate(24.717188 250.431109)scale(0.1 -0.1)">
       <use xlink:href="#DejaVuSans-2212"/>
       <use xlink:href="#DejaVuSans-30" x="83.789062"/>
       <use xlink:href="#DejaVuSans-2e" x="147.412109"/>
       <use xlink:href="#DejaVuSans-32" x="179.199219"/>
      </g>
     </g>
    </g>
    <g id="ytick_3">
     <g id="line2d_17">
      <path d="M 56 186.991009 
L 709.2 186.991009 
" clip-path="url(#pc61b159155)" style="fill: none; stroke: #b0b0b0; stroke-width: 0.8; stroke-linecap: square"/>
     </g>
     <g id="line2d_18">
      <g>
       <use xlink:href="#mb24c5804ef" x="56" y="186.991009" style="stroke: #000000; stroke-width: 0.8"/>
      </g>
     </g>
     <g id="text_10">
      <!-- 0.0 -->
      <g transform="translate(33.096875 190.790227)scale(0.1 -0.1)">
       <use xlink:href="#DejaVuSans-30"/>
       <use xlink:href="#DejaVuSans-2e" x="63.623047"/>
       <use xlink:href="#DejaVuSans-30" x="95.410156"/>
      </g>
     </g>
    </g>
    <g id="ytick_4">
     <g id="line2d_19">
      <path d="M 56 127.350128 
L 709.2 127.350128 
" clip-path="url(#pc61b159155)" style="fill: none; stroke: #b0b0b0; stroke-width: 0.8; stroke-linecap: square"/>
     </g>
     <g id="line2d_20">
      <g>
       <use xlink:href="#mb24c5804ef" x="56" y="127.350128" style="stroke: #000000; stroke-width: 0.8"/>
      </g>
     </g>
     <g id="text_11">
      <!-- 0.2 -->
      <g transform="translate(33.096875 131.149346)scale(0.1 -0.1)">
       <use xlink:href="#DejaVuSans-30"/>
       <use xlink:href="#DejaVuSans-2e" x="63.623047"/>
       <use xlink:href="#DejaVuSans-32" x="95.410156"/>
      </g>
     </g>
    </g>
    <g id="ytick_5">
     <g id="line2d_21">
      <path d="M 56 67.709247 
L 709.2 67.709247 
" clip-path="url(#pc61b159155)" style="fill: none; stroke: #b0b0b0; stroke-width: 0.8; stroke-linecap: square"/>
     </g>
     <g id="line2d_22">
      <g>
       <use xlink:href="#mb24c5804ef" x="56" y="67.709247" style="stroke: #000000; stroke-width: 0.8"/>
      </g>
     </g>
     <g id="text_12">
      <!-- 0.4 -->
      <g transform="translate(33.096875 71.508465)scale(0.1 -0.1)">
       <use xlink:href="#DejaVuSans-30"/>
       <use xlink:href="#DejaVuSans-2e" x="63.623047"/>
       <use xlink:href="#DejaVuSans-34" x="95.410156"/>
      </g>
     </g>
    </g>
    <g id="text_13">
     <!-- Speed (m/s) -->
     <g transform="translate(18.6375 194.745781)rotate(-90)scale(0.1 -0.1)">
      <defs>
       <path id="DejaVuSans-53" d="M 3425 4513 
L 3425 3897 
Q 3066 4069 2747 4153 
Q 2428 4238 2131 4238 
Q 1616 4238 1336 4038 
Q 1056 3838 1056 3469 
Q 1056 3159 1242 3001 
Q 1428 2844 1947 2747 
L 2328 2669 
Q 3034 2534 3370 2195 
Q 3706 1856 3706 1288 
Q 3706 609 3251 259 
Q 2797 -91 1919 -91 
Q 1588 -91 1214 -16 
Q 841 59 441 206 
L 441 856 
Q 825 641 1194 531 
Q 1563 422 1919 422 
Q 2459 422 2753 634 
Q 3047 847 3047 1241 
Q 3047 1584 2836 1778 
Q 2625 1972 2144 2069 
L 1759 2144 
Q 1053 2284 737 2584 
Q 422 2884 422 3419 
Q 422 4038 858 4394 
Q 1294 4750 2059 4750 
Q 2388 4750 2728 4690 
Q 3069 4631 3425 4513 
z
" transform="scale(0.015625)"/>
       <path id="DejaVuSans-65" d="M 3597 1894 
L 3597 1613 
L 953 1613 
Q 991 1019 1311 708 
Q 1631 397 2203 397 
Q 2534 397 2845 478 
Q 3156 559 3463 722 
L 3463 178 
Q 3153 47 2828 -22 
Q 2503 -91 2169 -91 
Q 1331 -91 842 396 
Q 353 884 353 1716 
Q 353 2575 817 3079 
Q 1281 3584 2069 3584 
Q 2775 3584 3186 3129 
Q 3597 2675 3597 1894 
z
M 3022 2063 
Q 3016 2534 2758 2815 
Q 2500 3097 2075 3097 
Q 1594 3097 1305 2825 
Q 1016 2553 972 2059 
L 3022 2063 
z
" transform="scale(0.015625)"/>
       <path id="DejaVuSans-64" d="M 2906 2969 
L 2906 4863 
L 3481 4863 
L 3481 0 
L 2906 0 
L 2906 525 
Q 2725 213 2448 61 
Q 2172 -91 1784 -91 
Q 1150 -91 751 415 
Q 353 922 353 1747 
Q 353 2572 751 3078 
Q 1150 3584 1784 3584 
Q 2172 3584 2448 3432 
Q 2725 3281 2906 2969 
z
M 947 1747 
Q 947 1113 1208 752 
Q 1469 391 1925 391 
Q 2381 391 2643 752 
Q 2906 1113 2906 1747 
Q 2906 2381 2643 2742 
Q 2381 3103 1925 3103 
Q 1469 3103 1208 2742 
Q 947 2381 947 1747 
z
" transform="scale(0.015625)"/>
       <path id="DejaVuSans-28" d="M 1984 4856 
Q 1566 4138 1362 3434 
Q 1159 2731 1159 2009 
Q 1159 1288 1364 580 
Q 1569 -128 1984 -844 
L 1484 -844 
Q 1016 -109 783 600 
Q 550 1309 550 2009 
Q 550 2706 781 3412 
Q 1013 4119 1484 4856 
L 1984 4856 
z
" transform="scale(0.015625)"/>
       <path id="DejaVuSans-6d" d="M 3328 2828 
Q 3544 3216 3844 3400 
Q 4144 3584 4550 3584 
Q 5097 3584 5394 3201 
Q 5691 2819 5691 2113 
L 5691 0 
L 5113 0 
L 5113 2094 
Q 5113 2597 4934 2840 
Q 4756 3084 4391 3084 
Q 3944 3084 3684 2787 
Q 3425 2491 3425 1978 
L 3425 0 
L 2847 0 
L 2847 2094 
Q 2847 2600 2669 2842 
Q 2491 3084 2119 3084 
Q 1678 3084 1418 2786 
Q 1159 2488 1159 1978 
L 1159 0 
L 581 0 
L 581 3500 
L 1159 3500 
L 1159 2956 
Q 1356 3278 1631 3431 
Q 1906 3584 2284 3584 
Q 2666 3584 2933 3390 
Q 3200 3197 3328 2828 
z
" transform="scale(0.015625)"/>
       <path id="DejaVuSans-2f" d="M 1625 4666 
L 2156 4666 
L 531 -594 
L 0 -594 
L 1625 4666 
z
" transform="scale(0.015625)"/>
       <path id="DejaVuSans-73" d="M 2834 3397 
L 2834 2853 
Q 2591 2978 2328 3040 
Q 2066 3103 1784 3103 
Q 1356 3103 1142 2972 
Q 928 2841 928 2578 
Q 928 2378 1081 2264 
Q 1234 2150 1697 2047 
L 1894 2003 
Q 2506 1872 2764 1633 
Q 3022 1394 3022 966 
Q 3022 478 2636 193 
Q 2250 -91 1575 -91 
Q 1294 -91 989 -36 
Q 684 19 347 128 
L 347 722 
Q 666 556 975 473 
Q 1284 391 1588 391 
Q 1994 391 2212 530 
Q 2431 669 2431 922 
Q 2431 1156 2273 1281 
Q 2116 1406 1581 1522 
L 1381 1569 
Q 847 1681 609 1914 
Q 372 2147 372 2553 
Q 372 3047 722 3315 
Q 1072 3584 1716 3584 
Q 2034 3584 2315 3537 
Q 2597 3491 2834 3397 
z
" transform="scale(0.015625)"/>
       <path id="DejaVuSans-29" d="M 513 4856 
L 1013 4856 
Q 1481 4119 1714 3412 
Q 1947 2706 1947 2009 
Q 1947 1309 1714 600 
Q 1481 -109 1013 -844 
L 513 -844 
Q 928 -128 1133 580 
Q 1338 1288 1338 2009 
Q 1338 2731 1133 3434 
Q 928 4138 513 4856 
z
" transform="scale(0.015625)"/>
      </defs>
      <use xlink:href="#DejaVuSans-53"/>
      <use xlink:href="#DejaVuSans-70" x="63.476562"/>
      <use xlink:href="#DejaVuSans-65" x="126.953125"/>
      <use xlink:href="#DejaVuSans-65" x="188.476562"/>
      <use xlink:href="#DejaVuSans-64" x="250"/>
      <use xlink:href="#DejaVuSans-20" x="313.476562"/>
      <use xlink:href="#DejaVuSans-28" x="345.263672"/>
      <use xlink:href="#DejaVuSans-6d" x="384.277344"/>
      <use xlink:href="#DejaVuSans-2f" x="481.689453"/>
      <use xlink:href="#DejaVuSans-73" x="515.380859"/>
      <use xlink:href="#DejaVuSans-29" x="567.480469"/>
     </g>
    </g>
   </g>
   <g id="line2d_23">
    <path d="M 85.690909 183.471207 
L 86.215947 183.701186 
L 87.266024 183.741095 
L 89.366176 183.813781 
L 89.891215 184.095897 
L 91.466329 185.519364 
L 92.516405 186.392007 
L 94.616558 188.216142 
L 95.141596 188.404187 
L 95.666635 188.435959 
L 96.191673 188.585082 
L 96.716711 188.420731 
L 97.766787 188.509407 
L 103.017169 188.909915 
L 111.41778 189.722068 
L 113.517933 190.16683 
L 115.618085 190.819128 
L 117.718238 191.693221 
L 121.393505 193.396214 
L 121.918544 193.194171 
L 122.443582 192.742553 
L 124.018696 190.123809 
L 125.068773 188.515725 
L 126.643887 186.633501 
L 127.168925 186.522248 
L 127.693964 186.715028 
L 131.369231 191.539015 
L 132.944345 193.100952 
L 133.994422 195.755638 
L 134.51946 196.695241 
L 136.094574 201.523172 
L 137.669689 207.714886 
L 141.344956 224.338719 
L 142.920071 236.199638 
L 143.445109 240.557127 
L 145.020223 250.209615 
L 145.545262 252.476561 
L 146.595338 255.289382 
L 147.120376 255.292725 
L 147.645414 254.443206 
L 148.170453 252.141996 
L 149.220529 244.889088 
L 149.745567 241.207481 
L 152.370758 209.124332 
L 154.995949 172.921935 
L 155.520987 169.190234 
L 156.571063 158.933708 
L 157.62114 151.274868 
L 158.671216 146.575225 
L 159.196254 145.033487 
L 159.721293 144.36624 
L 160.246331 143.301266 
L 160.771369 144.016714 
L 162.346483 149.883993 
L 164.446636 159.220031 
L 165.496712 165.31935 
L 166.021751 166.05444 
L 168.646942 178.631264 
L 169.17198 181.451219 
L 169.697018 185.277655 
L 170.747094 191.309944 
L 171.797171 197.389096 
L 172.847247 202.250443 
L 173.372285 204.930489 
L 173.897323 208.232437 
L 175.472438 215.538464 
L 176.522514 220.469416 
L 179.147705 229.930573 
L 179.672743 232.53827 
L 181.247858 236.251371 
L 183.873049 241.371607 
L 184.398087 240.693118 
L 184.923125 240.787544 
L 185.448163 241.398395 
L 185.973202 241.788763 
L 186.49824 241.786073 
L 187.023278 241.981902 
L 187.548316 242.354388 
L 188.073354 242.993066 
L 188.598392 243.436046 
L 189.123431 243.168767 
L 190.698545 241.705078 
L 191.223583 241.743624 
L 192.27366 242.675016 
L 193.323736 242.81595 
L 193.848774 242.331294 
L 194.373812 241.349107 
L 194.898851 241.549372 
L 195.423889 240.781597 
L 197.524041 233.383704 
L 199.099156 229.044278 
L 199.624194 228.126575 
L 200.149232 226.649784 
L 200.674271 224.724205 
L 201.724347 222.539478 
L 202.249385 220.747831 
L 203.299461 218.669798 
L 203.8245 217.503485 
L 204.349538 216.861006 
L 204.874576 216.445262 
L 205.399614 216.290479 
L 205.924652 216.401659 
L 206.449691 217.020385 
L 206.974729 217.11884 
L 207.499767 218.091806 
L 208.024805 218.50161 
L 208.549843 218.336386 
L 209.074881 218.345606 
L 210.124958 218.799689 
L 211.175034 220.386408 
L 211.700072 219.796834 
L 212.225111 219.395079 
L 212.750149 219.322083 
L 213.800225 217.455696 
L 214.325263 216.75026 
L 216.425416 211.672863 
L 217.475492 210.548515 
L 218.000531 209.465899 
L 218.525569 209.194354 
L 219.050607 208.599234 
L 220.625721 203.825733 
L 221.675798 199.733297 
L 222.725874 196.859619 
L 223.77595 193.80125 
L 224.826027 192.05511 
L 225.876103 191.495746 
L 226.92618 191.297602 
L 227.451218 190.68851 
L 227.976256 189.710239 
L 228.501294 189.159296 
L 229.026332 188.019503 
L 229.55137 187.388041 
L 231.126485 186.650604 
L 232.7016 187.064137 
L 233.751676 188.606678 
L 234.801752 190.596958 
L 235.851829 192.239229 
L 236.376867 193.057272 
L 236.901905 193.601537 
L 237.426943 193.38759 
L 237.951981 192.598822 
L 239.002058 191.526602 
L 239.527096 191.402057 
L 240.577172 191.617709 
L 241.627249 192.646699 
L 242.152287 193.648116 
L 242.677325 195.554355 
L 245.302516 208.304133 
L 246.352592 211.896452 
L 247.927707 215.780845 
L 249.502821 222.338988 
L 253.178089 241.854708 
L 253.703127 243.548516 
L 254.753203 245.647568 
L 255.278241 245.445216 
L 255.803279 246.089179 
L 256.853356 249.432492 
L 257.378394 252.64142 
L 258.953509 264.80853 
L 261.053661 279.587546 
L 261.578699 282.403776 
L 262.103738 284.366806 
L 263.153814 284.992122 
L 263.678852 284.879884 
L 265.253967 282.529051 
L 265.779005 282.958813 
L 266.304043 281.979671 
L 267.354119 278.791135 
L 267.879158 275.576349 
L 268.404196 271.043081 
L 269.454272 264.288358 
L 269.97931 261.124863 
L 271.029387 254.086752 
L 272.079463 249.63083 
L 272.604501 248.023201 
L 273.654578 245.965311 
L 274.179616 243.847336 
L 275.229692 242.581664 
L 275.75473 242.531661 
L 278.379921 237.74701 
L 278.904959 237.866649 
L 279.429998 237.798655 
L 279.955036 237.377851 
L 280.480074 236.48756 
L 281.005112 235.260389 
L 281.53015 233.54916 
L 283.105265 225.059661 
L 283.630303 222.804277 
L 284.155341 219.797126 
L 284.680379 217.634591 
L 285.730456 210.801463 
L 286.780532 204.053826 
L 287.830608 198.719359 
L 288.880685 194.267339 
L 290.980838 184.22499 
L 294.131067 172.955631 
L 298.85641 155.621789 
L 299.381448 154.185104 
L 300.431525 152.321804 
L 301.481601 149.75524 
L 302.006639 147.961789 
L 302.531678 145.321271 
L 303.056716 143.281411 
L 304.63183 128.07813 
L 306.206945 108.367959 
L 308.307098 76.220429 
L 309.357174 65.607238 
L 310.932288 51.718289 
L 311.457327 48.825245 
L 311.982365 47.68485 
L 312.507403 48.888294 
L 313.032441 51.443025 
L 313.557479 53.210816 
L 314.607556 61.955093 
L 315.132594 67.639875 
L 316.18267 83.337013 
L 316.707708 90.983683 
L 319.332899 137.456808 
L 320.908014 156.680407 
L 321.95809 166.194313 
L 322.483128 169.013714 
L 323.008167 170.14043 
L 324.058243 171.888708 
L 324.583281 173.629575 
L 325.633357 175.784749 
L 326.683434 176.618673 
L 328.783587 178.946422 
L 329.308625 178.857614 
L 330.358701 178.94661 
L 330.883739 178.313885 
L 331.408777 178.598568 
L 331.933816 178.619801 
L 332.458854 178.236297 
L 332.983892 177.996421 
L 334.033968 176.313764 
L 334.559007 176.137694 
L 335.084045 175.151273 
L 336.134121 173.856396 
L 338.234274 169.812991 
L 339.28435 167.859849 
L 339.809388 167.367499 
L 340.334426 167.159909 
L 340.859465 167.182435 
L 342.434579 167.974198 
L 342.959617 167.931105 
L 343.484656 168.031615 
L 344.009694 169.014374 
L 344.534732 169.270666 
L 345.05977 168.546452 
L 346.109846 168.706719 
L 347.684961 169.442026 
L 348.209999 170.615722 
L 348.735037 171.293613 
L 349.785114 173.216119 
L 350.310152 173.622005 
L 350.83519 173.102854 
L 351.885266 171.483723 
L 352.935343 168.616307 
L 353.985419 165.967637 
L 356.085572 157.494771 
L 356.61061 154.531446 
L 358.710763 139.133463 
L 361.335954 117.827929 
L 361.860992 114.576077 
L 362.911068 110.705733 
L 363.961145 108.864777 
L 364.486183 107.493898 
L 365.011221 106.54372 
L 365.536259 106.908071 
L 366.061297 108.623142 
L 366.586336 111.273767 
L 367.636412 118.519728 
L 368.16145 122.358834 
L 369.211526 132.791409 
L 370.261603 144.038242 
L 371.836717 165.040194 
L 372.886794 176.445604 
L 373.411832 182.039278 
L 375.511985 199.206513 
L 376.037023 202.279944 
L 376.562061 204.596786 
L 377.087099 206.095199 
L 378.662214 209.361639 
L 379.71229 209.295217 
L 380.237328 208.960056 
L 380.762366 207.420998 
L 381.287405 205.361584 
L 381.812443 204.007737 
L 382.337481 202.034724 
L 384.437634 196.027605 
L 385.48771 194.264231 
L 386.012748 193.573874 
L 386.537786 193.142186 
L 387.062825 192.176601 
L 388.637939 191.953467 
L 389.162977 191.480061 
L 389.688015 191.814416 
L 390.738092 191.381363 
L 391.26313 192.653454 
L 391.788168 194.261875 
L 394.938397 201.338466 
L 395.463435 203.27705 
L 395.988474 204.229525 
L 396.513512 204.506733 
L 397.03855 205.347538 
L 397.563588 206.781827 
L 398.088626 207.40524 
L 399.138703 209.16983 
L 400.188779 211.43253 
L 400.713817 212.394281 
L 401.238855 213.847721 
L 402.288932 214.855365 
L 402.81397 215.92182 
L 403.864046 219.643096 
L 405.439161 225.600057 
L 406.489237 229.53163 
L 407.014275 232.330727 
L 407.539314 234.326225 
L 408.58939 235.743976 
L 409.114428 236.02138 
L 409.639466 237.173084 
L 410.164504 239.077862 
L 411.739619 242.918146 
L 412.264657 244.09574 
L 412.789695 244.620016 
L 413.314734 244.584084 
L 413.839772 244.060234 
L 414.36481 243.180029 
L 414.889848 241.828396 
L 415.939924 237.353819 
L 418.040077 226.480573 
L 418.565115 224.891426 
L 419.090154 223.977729 
L 419.615192 223.473739 
L 420.14023 221.664984 
L 421.715344 214.055573 
L 422.240383 212.06128 
L 424.340535 202.284432 
L 424.865574 200.000123 
L 425.91565 197.049801 
L 426.440688 196.345492 
L 427.490764 194.607837 
L 428.540841 193.881369 
L 429.065879 193.838434 
L 429.590917 193.046766 
L 430.115955 191.978954 
L 430.640993 191.209642 
L 431.69107 190.664754 
L 432.216108 190.683399 
L 432.741146 190.004543 
L 433.266184 189.990835 
L 433.791223 189.491167 
L 434.316261 189.203588 
L 434.841299 189.249066 
L 435.366337 188.90791 
L 436.416413 188.638394 
L 436.941452 188.283704 
L 437.46649 188.423784 
L 437.991528 188.277281 
L 438.516566 187.963619 
L 439.041604 188.109719 
L 439.566643 187.614075 
L 440.091681 187.825162 
L 440.616719 187.825405 
L 441.141757 188.069902 
L 441.666795 187.912234 
L 442.191833 187.480183 
L 442.716872 187.337448 
L 443.24191 187.655448 
L 443.766948 187.269807 
L 444.291986 187.442791 
L 445.342063 187.156206 
L 445.867101 187.343641 
L 446.392139 186.950866 
L 446.917177 187.48122 
L 447.442215 187.65183 
L 447.967253 186.938897 
L 449.01733 187.039397 
L 449.542368 186.758743 
L 450.067406 187.070088 
L 450.592444 186.691652 
L 451.117483 187.079149 
L 451.642521 187.25584 
L 452.167559 186.751392 
L 453.217635 186.84932 
L 453.742673 186.459056 
L 454.267712 186.984442 
L 454.79275 186.989378 
L 455.317788 186.83069 
L 455.842826 187.04093 
L 456.367864 186.566869 
L 456.892902 186.479775 
L 457.417941 186.513651 
L 457.942979 186.40536 
L 458.468017 186.73635 
L 458.993055 186.87182 
L 459.518093 186.400276 
L 460.043132 186.396946 
L 460.56817 186.672105 
L 461.093208 186.748639 
L 461.618246 186.395251 
L 462.143284 186.211134 
L 462.668322 186.174589 
L 463.193361 186.28764 
L 463.718399 186.533089 
L 464.243437 186.432694 
L 464.768475 185.987279 
L 465.818552 185.89177 
L 466.34359 185.429566 
L 466.868628 185.898636 
L 467.393666 185.849559 
L 467.918704 185.444457 
L 468.443742 185.427112 
L 468.968781 185.158814 
L 469.493819 184.706301 
L 470.018857 185.200681 
L 470.543895 185.015961 
L 471.068933 183.978918 
L 472.11901 183.695655 
L 472.644048 183.250483 
L 473.169086 183.028791 
L 474.219162 181.515789 
L 474.744201 181.14321 
L 475.794277 179.292053 
L 476.319315 178.796129 
L 476.844353 177.529992 
L 478.419468 170.026285 
L 478.944506 164.682447 
L 479.469544 157.951216 
L 480.519621 136.642266 
L 482.619773 81.136015 
L 483.144812 66.651224 
L 484.194888 46.240517 
L 484.719926 37.915285 
L 486.295041 28.23313 
L 486.820079 25.995543 
L 487.345117 24.765455 
L 487.870155 25.305571 
L 488.395193 26.209367 
L 488.920231 27.563089 
L 489.44527 31.412686 
L 489.970308 37.112042 
L 491.020384 55.907055 
L 492.595499 95.613449 
L 493.645575 123.205467 
L 494.695651 142.728886 
L 495.22069 150.411355 
L 496.270766 154.644208 
L 496.795804 155.248964 
L 497.320842 154.572005 
L 497.845881 153.584057 
L 498.895957 149.52946 
L 500.471071 144.43546 
L 500.99611 143.365176 
L 501.521148 143.515668 
L 502.046186 144.168101 
L 502.571224 145.67184 
L 505.196415 158.454256 
L 505.721453 161.388884 
L 506.246491 166.346498 
L 507.296568 180.112157 
L 508.871682 205.233749 
L 510.446797 232.869382 
L 511.496873 251.240769 
L 512.54695 264.998685 
L 513.597026 275.433367 
L 514.647102 285.602526 
L 515.697179 292.869728 
L 516.222217 295.969412 
L 516.747255 298.334106 
L 517.272293 299.089857 
L 518.32237 302.948854 
L 518.847408 304.074545 
L 519.372446 303.383594 
L 519.897484 302.39913 
L 520.422522 302.116349 
L 520.94756 300.880722 
L 521.472599 298.158293 
L 521.997637 296.594841 
L 522.522675 294.187163 
L 524.09779 284.383991 
L 525.147866 277.196517 
L 526.72298 269.102897 
L 532.4984 223.750606 
L 533.548477 218.62821 
L 534.598553 214.569926 
L 535.64863 209.275064 
L 537.223744 203.311424 
L 538.798859 199.28686 
L 539.323897 198.70236 
L 540.373973 198.706762 
L 540.899011 198.551251 
L 541.42405 199.052973 
L 541.949088 200.687731 
L 542.474126 202.87769 
L 542.999164 206.521136 
L 545.099317 226.924532 
L 546.674431 248.202841 
L 547.724508 258.613514 
L 548.249546 261.979831 
L 549.299622 266.448069 
L 549.82466 267.877786 
L 550.349699 268.393064 
L 551.924813 266.967439 
L 552.974889 262.057572 
L 553.499928 257.225388 
L 556.125119 225.231709 
L 557.700233 202.845741 
L 558.225271 196.24717 
L 558.750309 191.384517 
L 559.275348 188.284348 
L 559.800386 183.103736 
L 560.850462 167.792568 
L 562.950615 143.839837 
L 563.475653 140.197709 
L 564.000691 140.261921 
L 564.525729 139.542448 
L 565.050768 141.222966 
L 566.100844 151.706309 
L 568.726035 181.305154 
L 569.776111 186.272518 
L 570.301149 190.414664 
L 572.92634 228.309327 
L 573.976417 239.715021 
L 575.026493 245.17399 
L 575.551531 246.191223 
L 577.651684 234.609209 
L 578.70176 228.94143 
L 579.226798 227.254713 
L 580.276875 228.409954 
L 581.326951 230.4761 
L 581.851989 232.257286 
L 582.377028 234.479063 
L 582.902066 235.35212 
L 583.952142 238.432344 
L 584.47718 239.546008 
L 585.002218 239.852893 
L 585.527257 240.383024 
L 586.052295 240.152406 
L 586.577333 239.316812 
L 587.102371 237.612253 
L 587.627409 236.389811 
L 588.152448 235.827718 
L 588.677486 235.700131 
L 589.202524 235.700369 
L 589.727562 236.018588 
L 590.777638 237.175912 
L 591.827715 236.866517 
L 592.352753 235.984029 
L 593.402829 233.065611 
L 594.452906 228.497528 
L 595.502982 224.536803 
L 596.02802 222.488696 
L 596.553058 221.380841 
L 597.078097 221.033841 
L 597.603135 221.522611 
L 598.128173 221.494068 
L 599.178249 219.320748 
L 601.278402 212.831877 
L 602.328478 209.61928 
L 603.378555 206.821353 
L 603.903593 206.315565 
L 605.478707 205.962452 
L 606.528784 205.123518 
L 607.57886 203.623755 
L 608.628937 201.655231 
L 612.304204 195.728755 
L 613.879318 193.794778 
L 615.454433 192.304127 
L 616.504509 191.562381 
L 617.554586 191.012967 
L 619.1297 190.476433 
L 621.229853 190.084067 
L 630.68054 188.672637 
L 631.205578 188.359056 
L 632.255655 186.98392 
L 635.930922 182.666487 
L 636.45596 182.296851 
L 637.506036 182.274608 
L 639.081151 182.142097 
L 639.606189 182.215503 
L 640.656266 181.99857 
L 641.706342 182.373907 
L 642.756418 183.572645 
L 645.381609 186.343744 
L 645.906647 187.004775 
L 646.956724 187.675803 
L 648.0068 187.581369 
L 653.257182 187.537786 
L 653.78222 187.173727 
L 654.307258 186.963349 
L 655.357335 186.081001 
L 655.882373 185.882819 
L 658.507564 184.306547 
L 659.032602 184.359292 
L 659.55764 184.268477 
L 660.607716 184.533999 
L 661.132755 184.430277 
L 663.232907 184.413817 
L 663.757946 184.384249 
L 664.282984 184.740147 
L 664.808022 184.943358 
L 665.858098 185.814535 
L 666.383136 186.008623 
L 669.008327 187.58199 
L 669.533365 187.531822 
L 670.058404 187.626232 
L 671.10848 187.371296 
L 671.633518 187.48123 
L 674.258709 187.495654 
L 674.783747 187.567986 
L 675.308785 187.329121 
L 676.8839 186.042198 
L 677.933976 185.268426 
L 679.509091 184.120091 
L 679.509091 184.120091 
" clip-path="url(#pc61b159155)" style="fill: none; stroke: #1f77b4; stroke-width: 1.5; stroke-linecap: square"/>
   </g>
   <g id="patch_3">
    <path d="M 56 318.04 
L 56 10.8 
" style="fill: none; stroke: #000000; stroke-width: 0.8; stroke-linejoin: miter; stroke-linecap: square"/>
   </g>
   <g id="patch_4">
    <path d="M 709.2 318.04 
L 709.2 10.8 
" style="fill: none; stroke: #000000; stroke-width: 0.8; stroke-linejoin: miter; stroke-linecap: square"/>
   </g>
   <g id="patch_5">
    <path d="M 56 318.04 
L 709.2 318.04 
" style="fill: none; stroke: #000000; stroke-width: 0.8; stroke-linejoin: miter; stroke-linecap: square"/>
   </g>
   <g id="patch_6">
    <path d="M 56 10.8 
L 709.2 10.8 
" style="fill: none; stroke: #000000; stroke-width: 0.8; stroke-linejoin: miter; stroke-linecap: square"/>
   </g>
  </g>
 </g>
 <defs>
  <clipPath id="pc61b159155">
   <rect x="56" y="10.8" width="653.2" height="307.24"/>
  </clipPath>
 </defs>
</svg>
