<?xml version="1.0" encoding="utf-8" standalone="no"?>
<!DOCTYPE svg PUBLIC "-//W3C//DTD SVG 1.1//EN"
  "http://www.w3.org/Graphics/SVG/1.1/DTD/svg11.dtd">
<svg xmlns:xlink="http://www.w3.org/1999/xlink" width="720pt" height="360pt" viewBox="0 0 720 360" xmlns="http://www.w3.org/2000/svg" version="1.1">
 <metadata>
  <rdf:RDF xmlns:dc="http://purl.org/dc/elements/1.1/" xmlns:cc="http://creativecommons.org/ns#" xmlns:rdf="http://www.w3.org/1999/02/22-rdf-syntax-ns#">
   <cc:Work>
    <dc:type rdf:resource="http://purl.org/dc/dcmitype/StillImage"/>
    <dc:date>2023-03-01T15:02:06.051180</dc:date>
    <dc:format>image/svg+xml</dc:format>
    <dc:creator>
     <cc:Agent>
      <dc:title>Matplotlib v3.5.1, https://matplotlib.org/</dc:title>
     </cc:Agent>
    </dc:creator>
   </cc:Work>
  </rdf:RDF>
 </metadata>
 <defs>
  <style type="text/css">*{stroke-linejoin: round; stroke-linecap: butt}</style>
 </defs>
 <g id="figure_1">
  <g id="patch_1">
   <path d="M 0 360 
L 720 360 
L 720 0 
L 0 0 
z
" style="fill: #ffffff"/>
  </g>
  <g id="axes_1">
   <g id="patch_2">
    <path d="M 38.27 318.04 
L 709.2 318.04 
L 709.2 10.8 
L 38.27 10.8 
z
" style="fill: #ffffff"/>
   </g>
   <g id="matplotlib.axis_1">
    <g id="xtick_1">
     <g id="line2d_1">
      <path d="M 68.766818 318.04 
L 68.766818 10.8 
" clip-path="url(#pa51201a6b6)" style="fill: none; stroke: #b0b0b0; stroke-width: 0.8; stroke-linecap: square"/>
     </g>
     <g id="line2d_2">
      <defs>
       <path id="m5ae370bd62" d="M 0 0 
L 0 3.5 
" style="stroke: #000000; stroke-width: 0.8"/>
      </defs>
      <g>
       <use xlink:href="#m5ae370bd62" x="68.766818" y="318.04" style="stroke: #000000; stroke-width: 0.8"/>
      </g>
     </g>
     <g id="text_1">
      <!-- 0 -->
      <g transform="translate(65.585568 332.638438)scale(0.1 -0.1)">
       <defs>
        <path id="DejaVuSans-30" d="M 2034 4250 
Q 1547 4250 1301 3770 
Q 1056 3291 1056 2328 
Q 1056 1369 1301 889 
Q 1547 409 2034 409 
Q 2525 409 2770 889 
Q 3016 1369 3016 2328 
Q 3016 3291 2770 3770 
Q 2525 4250 2034 4250 
z
M 2034 4750 
Q 2819 4750 3233 4129 
Q 3647 3509 3647 2328 
Q 3647 1150 3233 529 
Q 2819 -91 2034 -91 
Q 1250 -91 836 529 
Q 422 1150 422 2328 
Q 422 3509 836 4129 
Q 1250 4750 2034 4750 
z
" transform="scale(0.015625)"/>
       </defs>
       <use xlink:href="#DejaVuSans-30"/>
      </g>
     </g>
    </g>
    <g id="xtick_2">
     <g id="line2d_3">
      <path d="M 176.624707 318.04 
L 176.624707 10.8 
" clip-path="url(#pa51201a6b6)" style="fill: none; stroke: #b0b0b0; stroke-width: 0.8; stroke-linecap: square"/>
     </g>
     <g id="line2d_4">
      <g>
       <use xlink:href="#m5ae370bd62" x="176.624707" y="318.04" style="stroke: #000000; stroke-width: 0.8"/>
      </g>
     </g>
     <g id="text_2">
      <!-- 200 -->
      <g transform="translate(167.080957 332.638438)scale(0.1 -0.1)">
       <defs>
        <path id="DejaVuSans-32" d="M 1228 531 
L 3431 531 
L 3431 0 
L 469 0 
L 469 531 
Q 828 903 1448 1529 
Q 2069 2156 2228 2338 
Q 2531 2678 2651 2914 
Q 2772 3150 2772 3378 
Q 2772 3750 2511 3984 
Q 2250 4219 1831 4219 
Q 1534 4219 1204 4116 
Q 875 4013 500 3803 
L 500 4441 
Q 881 4594 1212 4672 
Q 1544 4750 1819 4750 
Q 2544 4750 2975 4387 
Q 3406 4025 3406 3419 
Q 3406 3131 3298 2873 
Q 3191 2616 2906 2266 
Q 2828 2175 2409 1742 
Q 1991 1309 1228 531 
z
" transform="scale(0.015625)"/>
       </defs>
       <use xlink:href="#DejaVuSans-32"/>
       <use xlink:href="#DejaVuSans-30" x="63.623047"/>
       <use xlink:href="#DejaVuSans-30" x="127.246094"/>
      </g>
     </g>
    </g>
    <g id="xtick_3">
     <g id="line2d_5">
      <path d="M 284.482597 318.04 
L 284.482597 10.8 
" clip-path="url(#pa51201a6b6)" style="fill: none; stroke: #b0b0b0; stroke-width: 0.8; stroke-linecap: square"/>
     </g>
     <g id="line2d_6">
      <g>
       <use xlink:href="#m5ae370bd62" x="284.482597" y="318.04" style="stroke: #000000; stroke-width: 0.8"/>
      </g>
     </g>
     <g id="text_3">
      <!-- 400 -->
      <g transform="translate(274.938847 332.638438)scale(0.1 -0.1)">
       <defs>
        <path id="DejaVuSans-34" d="M 2419 4116 
L 825 1625 
L 2419 1625 
L 2419 4116 
z
M 2253 4666 
L 3047 4666 
L 3047 1625 
L 3713 1625 
L 3713 1100 
L 3047 1100 
L 3047 0 
L 2419 0 
L 2419 1100 
L 313 1100 
L 313 1709 
L 2253 4666 
z
" transform="scale(0.015625)"/>
       </defs>
       <use xlink:href="#DejaVuSans-34"/>
       <use xlink:href="#DejaVuSans-30" x="63.623047"/>
       <use xlink:href="#DejaVuSans-30" x="127.246094"/>
      </g>
     </g>
    </g>
    <g id="xtick_4">
     <g id="line2d_7">
      <path d="M 392.340486 318.04 
L 392.340486 10.8 
" clip-path="url(#pa51201a6b6)" style="fill: none; stroke: #b0b0b0; stroke-width: 0.8; stroke-linecap: square"/>
     </g>
     <g id="line2d_8">
      <g>
       <use xlink:href="#m5ae370bd62" x="392.340486" y="318.04" style="stroke: #000000; stroke-width: 0.8"/>
      </g>
     </g>
     <g id="text_4">
      <!-- 600 -->
      <g transform="translate(382.796736 332.638438)scale(0.1 -0.1)">
       <defs>
        <path id="DejaVuSans-36" d="M 2113 2584 
Q 1688 2584 1439 2293 
Q 1191 2003 1191 1497 
Q 1191 994 1439 701 
Q 1688 409 2113 409 
Q 2538 409 2786 701 
Q 3034 994 3034 1497 
Q 3034 2003 2786 2293 
Q 2538 2584 2113 2584 
z
M 3366 4563 
L 3366 3988 
Q 3128 4100 2886 4159 
Q 2644 4219 2406 4219 
Q 1781 4219 1451 3797 
Q 1122 3375 1075 2522 
Q 1259 2794 1537 2939 
Q 1816 3084 2150 3084 
Q 2853 3084 3261 2657 
Q 3669 2231 3669 1497 
Q 3669 778 3244 343 
Q 2819 -91 2113 -91 
Q 1303 -91 875 529 
Q 447 1150 447 2328 
Q 447 3434 972 4092 
Q 1497 4750 2381 4750 
Q 2619 4750 2861 4703 
Q 3103 4656 3366 4563 
z
" transform="scale(0.015625)"/>
       </defs>
       <use xlink:href="#DejaVuSans-36"/>
       <use xlink:href="#DejaVuSans-30" x="63.623047"/>
       <use xlink:href="#DejaVuSans-30" x="127.246094"/>
      </g>
     </g>
    </g>
    <g id="xtick_5">
     <g id="line2d_9">
      <path d="M 500.198375 318.04 
L 500.198375 10.8 
" clip-path="url(#pa51201a6b6)" style="fill: none; stroke: #b0b0b0; stroke-width: 0.8; stroke-linecap: square"/>
     </g>
     <g id="line2d_10">
      <g>
       <use xlink:href="#m5ae370bd62" x="500.198375" y="318.04" style="stroke: #000000; stroke-width: 0.8"/>
      </g>
     </g>
     <g id="text_5">
      <!-- 800 -->
      <g transform="translate(490.654625 332.638438)scale(0.1 -0.1)">
       <defs>
        <path id="DejaVuSans-38" d="M 2034 2216 
Q 1584 2216 1326 1975 
Q 1069 1734 1069 1313 
Q 1069 891 1326 650 
Q 1584 409 2034 409 
Q 2484 409 2743 651 
Q 3003 894 3003 1313 
Q 3003 1734 2745 1975 
Q 2488 2216 2034 2216 
z
M 1403 2484 
Q 997 2584 770 2862 
Q 544 3141 544 3541 
Q 544 4100 942 4425 
Q 1341 4750 2034 4750 
Q 2731 4750 3128 4425 
Q 3525 4100 3525 3541 
Q 3525 3141 3298 2862 
Q 3072 2584 2669 2484 
Q 3125 2378 3379 2068 
Q 3634 1759 3634 1313 
Q 3634 634 3220 271 
Q 2806 -91 2034 -91 
Q 1263 -91 848 271 
Q 434 634 434 1313 
Q 434 1759 690 2068 
Q 947 2378 1403 2484 
z
M 1172 3481 
Q 1172 3119 1398 2916 
Q 1625 2713 2034 2713 
Q 2441 2713 2670 2916 
Q 2900 3119 2900 3481 
Q 2900 3844 2670 4047 
Q 2441 4250 2034 4250 
Q 1625 4250 1398 4047 
Q 1172 3844 1172 3481 
z
" transform="scale(0.015625)"/>
       </defs>
       <use xlink:href="#DejaVuSans-38"/>
       <use xlink:href="#DejaVuSans-30" x="63.623047"/>
       <use xlink:href="#DejaVuSans-30" x="127.246094"/>
      </g>
     </g>
    </g>
    <g id="xtick_6">
     <g id="line2d_11">
      <path d="M 608.056264 318.04 
L 608.056264 10.8 
" clip-path="url(#pa51201a6b6)" style="fill: none; stroke: #b0b0b0; stroke-width: 0.8; stroke-linecap: square"/>
     </g>
     <g id="line2d_12">
      <g>
       <use xlink:href="#m5ae370bd62" x="608.056264" y="318.04" style="stroke: #000000; stroke-width: 0.8"/>
      </g>
     </g>
     <g id="text_6">
      <!-- 1000 -->
      <g transform="translate(595.331264 332.638438)scale(0.1 -0.1)">
       <defs>
        <path id="DejaVuSans-31" d="M 794 531 
L 1825 531 
L 1825 4091 
L 703 3866 
L 703 4441 
L 1819 4666 
L 2450 4666 
L 2450 531 
L 3481 531 
L 3481 0 
L 794 0 
L 794 531 
z
" transform="scale(0.015625)"/>
       </defs>
       <use xlink:href="#DejaVuSans-31"/>
       <use xlink:href="#DejaVuSans-30" x="63.623047"/>
       <use xlink:href="#DejaVuSans-30" x="127.246094"/>
       <use xlink:href="#DejaVuSans-30" x="190.869141"/>
      </g>
     </g>
    </g>
    <g id="text_7">
     <!-- Track point -->
     <g transform="translate(346.313906 346.316563)scale(0.1 -0.1)">
      <defs>
       <path id="DejaVuSans-54" d="M -19 4666 
L 3928 4666 
L 3928 4134 
L 2272 4134 
L 2272 0 
L 1638 0 
L 1638 4134 
L -19 4134 
L -19 4666 
z
" transform="scale(0.015625)"/>
       <path id="DejaVuSans-72" d="M 2631 2963 
Q 2534 3019 2420 3045 
Q 2306 3072 2169 3072 
Q 1681 3072 1420 2755 
Q 1159 2438 1159 1844 
L 1159 0 
L 581 0 
L 581 3500 
L 1159 3500 
L 1159 2956 
Q 1341 3275 1631 3429 
Q 1922 3584 2338 3584 
Q 2397 3584 2469 3576 
Q 2541 3569 2628 3553 
L 2631 2963 
z
" transform="scale(0.015625)"/>
       <path id="DejaVuSans-61" d="M 2194 1759 
Q 1497 1759 1228 1600 
Q 959 1441 959 1056 
Q 959 750 1161 570 
Q 1363 391 1709 391 
Q 2188 391 2477 730 
Q 2766 1069 2766 1631 
L 2766 1759 
L 2194 1759 
z
M 3341 1997 
L 3341 0 
L 2766 0 
L 2766 531 
Q 2569 213 2275 61 
Q 1981 -91 1556 -91 
Q 1019 -91 701 211 
Q 384 513 384 1019 
Q 384 1609 779 1909 
Q 1175 2209 1959 2209 
L 2766 2209 
L 2766 2266 
Q 2766 2663 2505 2880 
Q 2244 3097 1772 3097 
Q 1472 3097 1187 3025 
Q 903 2953 641 2809 
L 641 3341 
Q 956 3463 1253 3523 
Q 1550 3584 1831 3584 
Q 2591 3584 2966 3190 
Q 3341 2797 3341 1997 
z
" transform="scale(0.015625)"/>
       <path id="DejaVuSans-63" d="M 3122 3366 
L 3122 2828 
Q 2878 2963 2633 3030 
Q 2388 3097 2138 3097 
Q 1578 3097 1268 2742 
Q 959 2388 959 1747 
Q 959 1106 1268 751 
Q 1578 397 2138 397 
Q 2388 397 2633 464 
Q 2878 531 3122 666 
L 3122 134 
Q 2881 22 2623 -34 
Q 2366 -91 2075 -91 
Q 1284 -91 818 406 
Q 353 903 353 1747 
Q 353 2603 823 3093 
Q 1294 3584 2113 3584 
Q 2378 3584 2631 3529 
Q 2884 3475 3122 3366 
z
" transform="scale(0.015625)"/>
       <path id="DejaVuSans-6b" d="M 581 4863 
L 1159 4863 
L 1159 1991 
L 2875 3500 
L 3609 3500 
L 1753 1863 
L 3688 0 
L 2938 0 
L 1159 1709 
L 1159 0 
L 581 0 
L 581 4863 
z
" transform="scale(0.015625)"/>
       <path id="DejaVuSans-20" transform="scale(0.015625)"/>
       <path id="DejaVuSans-70" d="M 1159 525 
L 1159 -1331 
L 581 -1331 
L 581 3500 
L 1159 3500 
L 1159 2969 
Q 1341 3281 1617 3432 
Q 1894 3584 2278 3584 
Q 2916 3584 3314 3078 
Q 3713 2572 3713 1747 
Q 3713 922 3314 415 
Q 2916 -91 2278 -91 
Q 1894 -91 1617 61 
Q 1341 213 1159 525 
z
M 3116 1747 
Q 3116 2381 2855 2742 
Q 2594 3103 2138 3103 
Q 1681 3103 1420 2742 
Q 1159 2381 1159 1747 
Q 1159 1113 1420 752 
Q 1681 391 2138 391 
Q 2594 391 2855 752 
Q 3116 1113 3116 1747 
z
" transform="scale(0.015625)"/>
       <path id="DejaVuSans-6f" d="M 1959 3097 
Q 1497 3097 1228 2736 
Q 959 2375 959 1747 
Q 959 1119 1226 758 
Q 1494 397 1959 397 
Q 2419 397 2687 759 
Q 2956 1122 2956 1747 
Q 2956 2369 2687 2733 
Q 2419 3097 1959 3097 
z
M 1959 3584 
Q 2709 3584 3137 3096 
Q 3566 2609 3566 1747 
Q 3566 888 3137 398 
Q 2709 -91 1959 -91 
Q 1206 -91 779 398 
Q 353 888 353 1747 
Q 353 2609 779 3096 
Q 1206 3584 1959 3584 
z
" transform="scale(0.015625)"/>
       <path id="DejaVuSans-69" d="M 603 3500 
L 1178 3500 
L 1178 0 
L 603 0 
L 603 3500 
z
M 603 4863 
L 1178 4863 
L 1178 4134 
L 603 4134 
L 603 4863 
z
" transform="scale(0.015625)"/>
       <path id="DejaVuSans-6e" d="M 3513 2113 
L 3513 0 
L 2938 0 
L 2938 2094 
Q 2938 2591 2744 2837 
Q 2550 3084 2163 3084 
Q 1697 3084 1428 2787 
Q 1159 2491 1159 1978 
L 1159 0 
L 581 0 
L 581 3500 
L 1159 3500 
L 1159 2956 
Q 1366 3272 1645 3428 
Q 1925 3584 2291 3584 
Q 2894 3584 3203 3211 
Q 3513 2838 3513 2113 
z
" transform="scale(0.015625)"/>
       <path id="DejaVuSans-74" d="M 1172 4494 
L 1172 3500 
L 2356 3500 
L 2356 3053 
L 1172 3053 
L 1172 1153 
Q 1172 725 1289 603 
Q 1406 481 1766 481 
L 2356 481 
L 2356 0 
L 1766 0 
Q 1100 0 847 248 
Q 594 497 594 1153 
L 594 3053 
L 172 3053 
L 172 3500 
L 594 3500 
L 594 4494 
L 1172 4494 
z
" transform="scale(0.015625)"/>
      </defs>
      <use xlink:href="#DejaVuSans-54"/>
      <use xlink:href="#DejaVuSans-72" x="46.333984"/>
      <use xlink:href="#DejaVuSans-61" x="87.447266"/>
      <use xlink:href="#DejaVuSans-63" x="148.726562"/>
      <use xlink:href="#DejaVuSans-6b" x="203.707031"/>
      <use xlink:href="#DejaVuSans-20" x="261.617188"/>
      <use xlink:href="#DejaVuSans-70" x="293.404297"/>
      <use xlink:href="#DejaVuSans-6f" x="356.880859"/>
      <use xlink:href="#DejaVuSans-69" x="418.0625"/>
      <use xlink:href="#DejaVuSans-6e" x="445.845703"/>
      <use xlink:href="#DejaVuSans-74" x="509.224609"/>
     </g>
    </g>
   </g>
   <g id="matplotlib.axis_2">
    <g id="ytick_1">
     <g id="line2d_13">
      <path d="M 38.27 285.8816 
L 709.2 285.8816 
" clip-path="url(#pa51201a6b6)" style="fill: none; stroke: #b0b0b0; stroke-width: 0.8; stroke-linecap: square"/>
     </g>
     <g id="line2d_14">
      <defs>
       <path id="m8567909ae1" d="M 0 0 
L -3.5 0 
" style="stroke: #000000; stroke-width: 0.8"/>
      </defs>
      <g>
       <use xlink:href="#m8567909ae1" x="38.27" y="285.8816" style="stroke: #000000; stroke-width: 0.8"/>
      </g>
     </g>
     <g id="text_8">
      <!-- 3 -->
      <g transform="translate(24.9075 289.680819)scale(0.1 -0.1)">
       <defs>
        <path id="DejaVuSans-33" d="M 2597 2516 
Q 3050 2419 3304 2112 
Q 3559 1806 3559 1356 
Q 3559 666 3084 287 
Q 2609 -91 1734 -91 
Q 1441 -91 1130 -33 
Q 819 25 488 141 
L 488 750 
Q 750 597 1062 519 
Q 1375 441 1716 441 
Q 2309 441 2620 675 
Q 2931 909 2931 1356 
Q 2931 1769 2642 2001 
Q 2353 2234 1838 2234 
L 1294 2234 
L 1294 2753 
L 1863 2753 
Q 2328 2753 2575 2939 
Q 2822 3125 2822 3475 
Q 2822 3834 2567 4026 
Q 2313 4219 1838 4219 
Q 1578 4219 1281 4162 
Q 984 4106 628 3988 
L 628 4550 
Q 988 4650 1302 4700 
Q 1616 4750 1894 4750 
Q 2613 4750 3031 4423 
Q 3450 4097 3450 3541 
Q 3450 3153 3228 2886 
Q 3006 2619 2597 2516 
z
" transform="scale(0.015625)"/>
       </defs>
       <use xlink:href="#DejaVuSans-33"/>
      </g>
     </g>
    </g>
    <g id="ytick_2">
     <g id="line2d_15">
      <path d="M 38.27 233.658371 
L 709.2 233.658371 
" clip-path="url(#pa51201a6b6)" style="fill: none; stroke: #b0b0b0; stroke-width: 0.8; stroke-linecap: square"/>
     </g>
     <g id="line2d_16">
      <g>
       <use xlink:href="#m8567909ae1" x="38.27" y="233.658371" style="stroke: #000000; stroke-width: 0.8"/>
      </g>
     </g>
     <g id="text_9">
      <!-- 4 -->
      <g transform="translate(24.9075 237.457589)scale(0.1 -0.1)">
       <use xlink:href="#DejaVuSans-34"/>
      </g>
     </g>
    </g>
    <g id="ytick_3">
     <g id="line2d_17">
      <path d="M 38.27 181.435142 
L 709.2 181.435142 
" clip-path="url(#pa51201a6b6)" style="fill: none; stroke: #b0b0b0; stroke-width: 0.8; stroke-linecap: square"/>
     </g>
     <g id="line2d_18">
      <g>
       <use xlink:href="#m8567909ae1" x="38.27" y="181.435142" style="stroke: #000000; stroke-width: 0.8"/>
      </g>
     </g>
     <g id="text_10">
      <!-- 5 -->
      <g transform="translate(24.9075 185.23436)scale(0.1 -0.1)">
       <defs>
        <path id="DejaVuSans-35" d="M 691 4666 
L 3169 4666 
L 3169 4134 
L 1269 4134 
L 1269 2991 
Q 1406 3038 1543 3061 
Q 1681 3084 1819 3084 
Q 2600 3084 3056 2656 
Q 3513 2228 3513 1497 
Q 3513 744 3044 326 
Q 2575 -91 1722 -91 
Q 1428 -91 1123 -41 
Q 819 9 494 109 
L 494 744 
Q 775 591 1075 516 
Q 1375 441 1709 441 
Q 2250 441 2565 725 
Q 2881 1009 2881 1497 
Q 2881 1984 2565 2268 
Q 2250 2553 1709 2553 
Q 1456 2553 1204 2497 
Q 953 2441 691 2322 
L 691 4666 
z
" transform="scale(0.015625)"/>
       </defs>
       <use xlink:href="#DejaVuSans-35"/>
      </g>
     </g>
    </g>
    <g id="ytick_4">
     <g id="line2d_19">
      <path d="M 38.27 129.211913 
L 709.2 129.211913 
" clip-path="url(#pa51201a6b6)" style="fill: none; stroke: #b0b0b0; stroke-width: 0.8; stroke-linecap: square"/>
     </g>
     <g id="line2d_20">
      <g>
       <use xlink:href="#m8567909ae1" x="38.27" y="129.211913" style="stroke: #000000; stroke-width: 0.8"/>
      </g>
     </g>
     <g id="text_11">
      <!-- 6 -->
      <g transform="translate(24.9075 133.011131)scale(0.1 -0.1)">
       <use xlink:href="#DejaVuSans-36"/>
      </g>
     </g>
    </g>
    <g id="ytick_5">
     <g id="line2d_21">
      <path d="M 38.27 76.988684 
L 709.2 76.988684 
" clip-path="url(#pa51201a6b6)" style="fill: none; stroke: #b0b0b0; stroke-width: 0.8; stroke-linecap: square"/>
     </g>
     <g id="line2d_22">
      <g>
       <use xlink:href="#m8567909ae1" x="38.27" y="76.988684" style="stroke: #000000; stroke-width: 0.8"/>
      </g>
     </g>
     <g id="text_12">
      <!-- 7 -->
      <g transform="translate(24.9075 80.787902)scale(0.1 -0.1)">
       <defs>
        <path id="DejaVuSans-37" d="M 525 4666 
L 3525 4666 
L 3525 4397 
L 1831 0 
L 1172 0 
L 2766 4134 
L 525 4134 
L 525 4666 
z
" transform="scale(0.015625)"/>
       </defs>
       <use xlink:href="#DejaVuSans-37"/>
      </g>
     </g>
    </g>
    <g id="ytick_6">
     <g id="line2d_23">
      <path d="M 38.27 24.765455 
L 709.2 24.765455 
" clip-path="url(#pa51201a6b6)" style="fill: none; stroke: #b0b0b0; stroke-width: 0.8; stroke-linecap: square"/>
     </g>
     <g id="line2d_24">
      <g>
       <use xlink:href="#m8567909ae1" x="38.27" y="24.765455" style="stroke: #000000; stroke-width: 0.8"/>
      </g>
     </g>
     <g id="text_13">
      <!-- 8 -->
      <g transform="translate(24.9075 28.564673)scale(0.1 -0.1)">
       <use xlink:href="#DejaVuSans-38"/>
      </g>
     </g>
    </g>
    <g id="text_14">
     <!-- Speed (m/s) -->
     <g transform="translate(18.827813 194.745781)rotate(-90)scale(0.1 -0.1)">
      <defs>
       <path id="DejaVuSans-53" d="M 3425 4513 
L 3425 3897 
Q 3066 4069 2747 4153 
Q 2428 4238 2131 4238 
Q 1616 4238 1336 4038 
Q 1056 3838 1056 3469 
Q 1056 3159 1242 3001 
Q 1428 2844 1947 2747 
L 2328 2669 
Q 3034 2534 3370 2195 
Q 3706 1856 3706 1288 
Q 3706 609 3251 259 
Q 2797 -91 1919 -91 
Q 1588 -91 1214 -16 
Q 841 59 441 206 
L 441 856 
Q 825 641 1194 531 
Q 1563 422 1919 422 
Q 2459 422 2753 634 
Q 3047 847 3047 1241 
Q 3047 1584 2836 1778 
Q 2625 1972 2144 2069 
L 1759 2144 
Q 1053 2284 737 2584 
Q 422 2884 422 3419 
Q 422 4038 858 4394 
Q 1294 4750 2059 4750 
Q 2388 4750 2728 4690 
Q 3069 4631 3425 4513 
z
" transform="scale(0.015625)"/>
       <path id="DejaVuSans-65" d="M 3597 1894 
L 3597 1613 
L 953 1613 
Q 991 1019 1311 708 
Q 1631 397 2203 397 
Q 2534 397 2845 478 
Q 3156 559 3463 722 
L 3463 178 
Q 3153 47 2828 -22 
Q 2503 -91 2169 -91 
Q 1331 -91 842 396 
Q 353 884 353 1716 
Q 353 2575 817 3079 
Q 1281 3584 2069 3584 
Q 2775 3584 3186 3129 
Q 3597 2675 3597 1894 
z
M 3022 2063 
Q 3016 2534 2758 2815 
Q 2500 3097 2075 3097 
Q 1594 3097 1305 2825 
Q 1016 2553 972 2059 
L 3022 2063 
z
" transform="scale(0.015625)"/>
       <path id="DejaVuSans-64" d="M 2906 2969 
L 2906 4863 
L 3481 4863 
L 3481 0 
L 2906 0 
L 2906 525 
Q 2725 213 2448 61 
Q 2172 -91 1784 -91 
Q 1150 -91 751 415 
Q 353 922 353 1747 
Q 353 2572 751 3078 
Q 1150 3584 1784 3584 
Q 2172 3584 2448 3432 
Q 2725 3281 2906 2969 
z
M 947 1747 
Q 947 1113 1208 752 
Q 1469 391 1925 391 
Q 2381 391 2643 752 
Q 2906 1113 2906 1747 
Q 2906 2381 2643 2742 
Q 2381 3103 1925 3103 
Q 1469 3103 1208 2742 
Q 947 2381 947 1747 
z
" transform="scale(0.015625)"/>
       <path id="DejaVuSans-28" d="M 1984 4856 
Q 1566 4138 1362 3434 
Q 1159 2731 1159 2009 
Q 1159 1288 1364 580 
Q 1569 -128 1984 -844 
L 1484 -844 
Q 1016 -109 783 600 
Q 550 1309 550 2009 
Q 550 2706 781 3412 
Q 1013 4119 1484 4856 
L 1984 4856 
z
" transform="scale(0.015625)"/>
       <path id="DejaVuSans-6d" d="M 3328 2828 
Q 3544 3216 3844 3400 
Q 4144 3584 4550 3584 
Q 5097 3584 5394 3201 
Q 5691 2819 5691 2113 
L 5691 0 
L 5113 0 
L 5113 2094 
Q 5113 2597 4934 2840 
Q 4756 3084 4391 3084 
Q 3944 3084 3684 2787 
Q 3425 2491 3425 1978 
L 3425 0 
L 2847 0 
L 2847 2094 
Q 2847 2600 2669 2842 
Q 2491 3084 2119 3084 
Q 1678 3084 1418 2786 
Q 1159 2488 1159 1978 
L 1159 0 
L 581 0 
L 581 3500 
L 1159 3500 
L 1159 2956 
Q 1356 3278 1631 3431 
Q 1906 3584 2284 3584 
Q 2666 3584 2933 3390 
Q 3200 3197 3328 2828 
z
" transform="scale(0.015625)"/>
       <path id="DejaVuSans-2f" d="M 1625 4666 
L 2156 4666 
L 531 -594 
L 0 -594 
L 1625 4666 
z
" transform="scale(0.015625)"/>
       <path id="DejaVuSans-73" d="M 2834 3397 
L 2834 2853 
Q 2591 2978 2328 3040 
Q 2066 3103 1784 3103 
Q 1356 3103 1142 2972 
Q 928 2841 928 2578 
Q 928 2378 1081 2264 
Q 1234 2150 1697 2047 
L 1894 2003 
Q 2506 1872 2764 1633 
Q 3022 1394 3022 966 
Q 3022 478 2636 193 
Q 2250 -91 1575 -91 
Q 1294 -91 989 -36 
Q 684 19 347 128 
L 347 722 
Q 666 556 975 473 
Q 1284 391 1588 391 
Q 1994 391 2212 530 
Q 2431 669 2431 922 
Q 2431 1156 2273 1281 
Q 2116 1406 1581 1522 
L 1381 1569 
Q 847 1681 609 1914 
Q 372 2147 372 2553 
Q 372 3047 722 3315 
Q 1072 3584 1716 3584 
Q 2034 3584 2315 3537 
Q 2597 3491 2834 3397 
z
" transform="scale(0.015625)"/>
       <path id="DejaVuSans-29" d="M 513 4856 
L 1013 4856 
Q 1481 4119 1714 3412 
Q 1947 2706 1947 2009 
Q 1947 1309 1714 600 
Q 1481 -109 1013 -844 
L 513 -844 
Q 928 -128 1133 580 
Q 1338 1288 1338 2009 
Q 1338 2731 1133 3434 
Q 928 4138 513 4856 
z
" transform="scale(0.015625)"/>
      </defs>
      <use xlink:href="#DejaVuSans-53"/>
      <use xlink:href="#DejaVuSans-70" x="63.476562"/>
      <use xlink:href="#DejaVuSans-65" x="126.953125"/>
      <use xlink:href="#DejaVuSans-65" x="188.476562"/>
      <use xlink:href="#DejaVuSans-64" x="250"/>
      <use xlink:href="#DejaVuSans-20" x="313.476562"/>
      <use xlink:href="#DejaVuSans-28" x="345.263672"/>
      <use xlink:href="#DejaVuSans-6d" x="384.277344"/>
      <use xlink:href="#DejaVuSans-2f" x="481.689453"/>
      <use xlink:href="#DejaVuSans-73" x="515.380859"/>
      <use xlink:href="#DejaVuSans-29" x="567.480469"/>
     </g>
    </g>
   </g>
   <g id="line2d_25">
    <path d="M 68.766818 24.765455 
L 104.359922 24.765455 
L 104.899211 27.17953 
L 107.056369 40.768865 
L 108.134948 48.884747 
L 109.752816 63.226485 
L 111.909974 85.347517 
L 119.460026 163.242548 
L 121.617184 183.197382 
L 123.774342 200.572154 
L 125.931499 215.478381 
L 127.010078 221.315818 
L 127.549368 223.623425 
L 128.627947 226.863244 
L 129.167236 227.878901 
L 129.706526 228.533228 
L 130.245815 228.935245 
L 130.785104 229.137928 
L 132.402973 229.138391 
L 132.942262 229.017275 
L 133.481552 228.563494 
L 134.020841 227.705488 
L 134.560131 226.303837 
L 135.09942 224.579039 
L 135.63871 222.034029 
L 136.717288 214.869758 
L 137.256578 210.329902 
L 138.335157 198.631605 
L 139.953025 176.371553 
L 140.492315 171.098221 
L 141.031604 168.016518 
L 141.570893 170.580992 
L 142.110183 172.462005 
L 142.649472 173.79346 
L 143.188762 174.635919 
L 143.728051 175.238561 
L 144.80663 175.713871 
L 145.885209 175.713871 
L 146.424498 175.587895 
L 146.963788 175.154401 
L 147.503077 174.272467 
L 148.581656 171.837167 
L 149.660235 167.796943 
L 150.738814 162.427262 
L 152.356682 151.978438 
L 153.435261 143.633922 
L 154.51384 133.742641 
L 155.05313 132.736169 
L 156.670998 150.875558 
L 158.288866 165.738307 
L 159.367445 174.078787 
L 160.985313 184.201274 
L 162.063892 189.581321 
L 163.681761 196.229306 
L 164.76034 199.623091 
L 165.838918 201.952823 
L 166.917497 203.819206 
L 167.996076 205.1247 
L 168.535366 205.635718 
L 169.613945 206.149579 
L 170.153234 206.342586 
L 171.231813 206.93411 
L 173.388971 207.722609 
L 174.46755 207.791565 
L 175.546129 207.750311 
L 176.624707 207.413588 
L 177.703286 206.933721 
L 178.781865 206.7633 
L 180.399734 206.617415 
L 182.017602 205.881865 
L 183.096181 204.525717 
L 184.17476 202.205947 
L 185.253339 199.170347 
L 186.331917 195.809379 
L 187.410496 191.805568 
L 189.567654 182.634481 
L 192.803391 167.838401 
L 193.88197 163.806221 
L 195.499838 159.159605 
L 197.117706 155.310139 
L 198.196285 153.547635 
L 200.353443 149.909993 
L 201.432022 147.529575 
L 202.510601 144.494926 
L 204.128469 138.699428 
L 206.824916 127.519322 
L 207.903495 121.901376 
L 208.982074 114.889477 
L 210.599943 102.652239 
L 214.914258 65.342074 
L 216.532126 50.559164 
L 217.610705 40.232429 
L 218.149995 44.116377 
L 222.46431 84.928818 
L 225.700047 112.862091 
L 227.317915 129.242837 
L 231.092941 168.433964 
L 232.71081 181.84193 
L 237.564415 216.671227 
L 239.182283 225.992023 
L 240.260862 231.102948 
L 244.035888 247.932989 
L 245.653757 255.687184 
L 246.732335 259.691352 
L 247.271625 261.268215 
L 247.810914 262.469458 
L 248.350204 263.392722 
L 248.889493 263.989552 
L 249.428783 264.282149 
L 251.046651 264.386872 
L 252.12523 264.371714 
L 253.203809 264.105216 
L 255.360967 262.999796 
L 255.900256 262.430535 
L 256.439545 261.58282 
L 257.518124 258.631917 
L 258.057414 256.948941 
L 259.135993 252.516762 
L 264.528887 229.231121 
L 267.225334 219.534031 
L 270.461071 209.656625 
L 271.53965 204.926333 
L 272.618229 199.447559 
L 274.236097 189.121786 
L 275.853966 175.463409 
L 277.471834 159.167529 
L 279.089702 140.450607 
L 279.628992 138.69268 
L 281.786149 161.747906 
L 283.943307 181.972919 
L 286.100465 200.108654 
L 289.875491 230.442079 
L 292.571938 255.206882 
L 294.189807 269.071174 
L 295.268386 277.115261 
L 296.346964 283.409278 
L 297.425543 287.76725 
L 298.504122 290.846907 
L 299.043412 291.875966 
L 299.582701 292.650309 
L 300.121991 292.992834 
L 300.66128 293.116637 
L 301.739859 293.116637 
L 302.279148 292.997906 
L 303.357727 292.169982 
L 303.897017 291.430677 
L 304.436306 290.280806 
L 305.514885 286.811555 
L 306.593464 281.379107 
L 307.672043 273.555681 
L 308.750622 263.666253 
L 310.36849 245.974011 
L 315.222095 186.870207 
L 317.379253 163.000241 
L 321.154279 125.746095 
L 322.772147 111.948252 
L 324.390016 99.923155 
L 325.468595 93.10336 
L 326.007884 90.122835 
L 328.165042 99.317989 
L 329.78291 104.807086 
L 331.400778 110.127934 
L 332.479357 113.948057 
L 334.636515 123.371774 
L 336.254383 131.483936 
L 337.872252 140.519242 
L 339.49012 151.544443 
L 341.107989 165.60017 
L 346.500883 213.760408 
L 348.118751 226.077931 
L 349.19733 232.923992 
L 350.275909 238.311456 
L 350.815199 240.387775 
L 351.893777 243.130999 
L 352.433067 244.004978 
L 353.511646 245.106197 
L 354.590225 245.781478 
L 355.129514 245.907258 
L 356.747382 245.859225 
L 357.286672 245.592861 
L 357.825961 244.991057 
L 358.365251 244.053802 
L 359.44383 240.887112 
L 359.983119 238.643268 
L 360.522409 235.878006 
L 361.600987 228.493162 
L 362.140277 224.191468 
L 363.218856 212.769596 
L 364.297435 199.055201 
L 366.454592 169.587475 
L 367.533171 159.698617 
L 368.61175 152.204001 
L 369.690329 146.151881 
L 371.308197 138.669282 
L 372.386776 133.620068 
L 373.465355 127.605502 
L 375.083224 116.723708 
L 377.240381 99.43533 
L 379.397539 81.23621 
L 379.936829 82.198898 
L 382.093986 101.474484 
L 383.711855 115.418223 
L 385.869013 132.033912 
L 387.486881 142.850588 
L 390.722618 163.320869 
L 395.576223 190.450022 
L 396.654801 195.494548 
L 397.73338 199.502265 
L 398.811959 202.726681 
L 401.508406 208.150403 
L 402.047696 208.925174 
L 402.586985 209.496796 
L 403.665564 210.132658 
L 404.744143 210.215612 
L 406.362011 210.124078 
L 406.901301 209.906206 
L 407.44059 209.49633 
L 407.97988 208.793595 
L 408.519169 207.736238 
L 409.058459 206.413025 
L 410.137038 202.671595 
L 412.294195 193.070967 
L 413.372774 187.662619 
L 414.451353 181.173841 
L 415.529932 173.840413 
L 417.1478 160.736879 
L 419.844248 135.433521 
L 423.619274 99.824355 
L 427.933589 59.617228 
L 431.708615 25.720758 
L 432.247905 24.765455 
L 452.740904 24.765455 
L 453.280193 27.052749 
L 455.976641 52.038292 
L 459.212377 84.150184 
L 461.908824 112.653314 
L 465.683851 156.600098 
L 468.919587 198.614546 
L 471.616034 237.710567 
L 473.773192 268.983692 
L 474.851771 281.948441 
L 475.93035 291.494003 
L 476.469639 295.32461 
L 477.008929 297.985505 
L 478.087508 301.568162 
L 479.166087 303.088562 
L 479.705376 303.677352 
L 480.244666 303.963692 
L 481.323245 304.074545 
L 482.401823 304.025262 
L 483.480402 303.674831 
L 484.019692 303.170576 
L 484.558981 302.162053 
L 485.098271 300.61131 
L 485.63756 298.487349 
L 486.716139 291.56373 
L 487.255428 287.174757 
L 488.334007 275.838245 
L 489.412586 262.609742 
L 491.030455 242.433057 
L 492.109033 230.829773 
L 493.187612 221.366971 
L 494.266191 214.181844 
L 495.34477 208.926349 
L 498.580507 196.075519 
L 499.119796 193.260043 
L 499.659086 192.415204 
L 500.198375 195.922 
L 500.737665 200.209899 
L 501.276954 205.439595 
L 501.816243 212.100484 
L 503.434112 235.984099 
L 504.512691 248.539359 
L 505.59127 258.061612 
L 506.669848 265.076693 
L 507.748427 270.115501 
L 508.287717 272.23983 
L 509.366296 275.458923 
L 510.444875 277.497112 
L 511.523454 278.650276 
L 512.062743 279.131245 
L 512.602032 279.431062 
L 513.141322 279.550931 
L 514.75919 279.481874 
L 516.377059 278.842808 
L 517.455637 277.690062 
L 518.534216 275.871261 
L 519.073506 274.661249 
L 520.691374 269.774257 
L 522.309242 263.627104 
L 523.387821 258.922444 
L 524.4664 253.278178 
L 526.084269 243.020766 
L 527.702137 230.518068 
L 530.937874 202.269706 
L 533.095031 181.704023 
L 534.17361 170.929038 
L 534.7129 171.374657 
L 536.330768 188.915901 
L 539.027215 219.565317 
L 540.645084 233.941793 
L 541.723662 240.522443 
L 542.262952 242.759625 
L 542.802241 244.371082 
L 543.341531 245.485121 
L 543.88082 246.249054 
L 544.42011 246.743713 
L 544.959399 246.999198 
L 546.037978 247.063881 
L 547.116557 246.999235 
L 548.195136 246.723792 
L 548.734425 246.269109 
L 549.273715 245.513219 
L 549.813004 244.160276 
L 550.352294 242.209272 
L 551.430873 236.624867 
L 552.509451 228.323142 
L 553.58803 217.106933 
L 555.205899 194.989726 
L 556.284478 179.571058 
L 556.823767 178.056317 
L 557.363056 181.618022 
L 557.902346 184.027781 
L 558.441635 185.559668 
L 558.980925 186.292166 
L 560.598793 186.501188 
L 561.138083 186.501188 
L 561.677372 186.218485 
L 562.216661 185.102407 
L 562.755951 183.01475 
L 563.29524 180.163574 
L 563.83453 176.649572 
L 564.913109 166.164589 
L 565.991688 180.058036 
L 567.070266 194.092555 
L 568.148845 203.856652 
L 568.688135 207.438771 
L 569.227424 210.004087 
L 569.766714 211.643501 
L 570.306003 212.548383 
L 570.845293 213.159896 
L 571.384582 213.319506 
L 572.463161 213.319506 
L 573.00245 212.9037 
L 573.54174 212.129262 
L 574.081029 210.902693 
L 574.620319 209.301019 
L 575.698898 205.163181 
L 576.777476 200.549718 
L 577.316766 198.71985 
L 577.856055 197.41868 
L 578.395345 198.574343 
L 579.473924 200.150447 
L 580.013213 200.661273 
L 580.552503 200.955882 
L 581.631082 201.172939 
L 583.24895 201.13585 
L 583.788239 200.968237 
L 584.327529 200.541531 
L 587.023976 197.571058 
L 588.102555 196.961403 
L 589.181134 196.444979 
L 589.720423 196.066036 
L 590.259713 195.437867 
L 590.799002 194.624275 
L 591.877581 192.096462 
L 592.95616 188.366506 
L 597.270475 171.825003 
L 598.888344 164.012297 
L 600.506212 154.685841 
L 603.202659 138.388323 
L 605.899107 122.789499 
L 608.056264 108.778495 
L 610.213422 93.287582 
L 613.449159 68.143532 
L 618.842053 25.486766 
L 619.381343 24.765455 
L 678.703182 24.765455 
L 678.703182 24.765455 
" clip-path="url(#pa51201a6b6)" style="fill: none; stroke: #1f77b4; stroke-width: 1.5; stroke-linecap: square"/>
   </g>
   <g id="patch_3">
    <path d="M 38.27 318.04 
L 38.27 10.8 
" style="fill: none; stroke: #000000; stroke-width: 0.8; stroke-linejoin: miter; stroke-linecap: square"/>
   </g>
   <g id="patch_4">
    <path d="M 709.2 318.04 
L 709.2 10.8 
" style="fill: none; stroke: #000000; stroke-width: 0.8; stroke-linejoin: miter; stroke-linecap: square"/>
   </g>
   <g id="patch_5">
    <path d="M 38.27 318.04 
L 709.2 318.04 
" style="fill: none; stroke: #000000; stroke-width: 0.8; stroke-linejoin: miter; stroke-linecap: square"/>
   </g>
   <g id="patch_6">
    <path d="M 38.27 10.8 
L 709.2 10.8 
" style="fill: none; stroke: #000000; stroke-width: 0.8; stroke-linejoin: miter; stroke-linecap: square"/>
   </g>
  </g>
 </g>
 <defs>
  <clipPath id="pa51201a6b6">
   <rect x="38.27" y="10.8" width="670.93" height="307.24"/>
  </clipPath>
 </defs>
</svg>
